<svg xmlns="http://www.w3.org/2000/svg" id="Layer_2" viewBox="0 0 177.7 60.09"><defs><style>.cls-1{fill:#fff}.cls-2{fill:#84a2a4}</style></defs><g id="Layer_1-2"><path d="M90.34 33.24V17.77c0-8.45-2.51-9.93-6.65-9.93-2.64 0-4.83 1.03-6.15 2.91-1.07 1.54-1.38 3.37-1.38 7.59v14.89h-8.35V1.63h7.72v3.02C78.61 1.97 81.37.88 85.32.88c4.83 0 8.6 1.6 10.86 4.57 1.88 2.45 2.51 5.19 2.51 10.84v16.95zm41.98 0v-4.11c-3.33 3.42-6.65 4.85-11.55 4.85-10.17 0-17.51-6.91-17.51-16.44S110.66.88 120.96.88c5.02 0 8.47 1.48 11.36 4.96V1.63h7.66v31.62h-7.66ZM121.84 7.85c-5.96 0-10.17 4.11-10.17 9.87s4.21 9.3 10.29 9.3 10.11-4.11 10.11-9.36c0-5.76-4.27-9.82-10.23-9.82Zm47.51 25.39V17.77c0-8.45-2.51-9.93-6.65-9.93-2.64 0-4.83 1.03-6.15 2.91-1.07 1.54-1.38 3.37-1.38 7.59v14.89h-8.35V1.63h7.72v3.02c3.08-2.68 5.84-3.77 9.79-3.77 4.83 0 8.6 1.6 10.86 4.57 1.88 2.45 2.51 5.19 2.51 10.84v16.95z" class="cls-1"/><path d="M79.14 54.38c0 3.38-2.38 5.7-5.57 5.7-1.85 0-3.4-.81-4.32-2.32v2.21H67.8V44.18h1.51v6.72c.94-1.45 2.47-2.21 4.26-2.21 3.19 0 5.57 2.3 5.57 5.68Zm-1.51 0c0-2.62-1.81-4.36-4.17-4.36s-4.17 1.74-4.17 4.36 1.79 4.36 4.17 4.36 4.17-1.74 4.17-4.36m18.93-5.59v11.19h-1.45v-2.04c-.79 1.36-2.23 2.15-4.02 2.15-2.85 0-4.72-1.6-4.72-4.81v-6.49h1.51v6.34c0 2.38 1.23 3.6 3.36 3.6 2.34 0 3.81-1.51 3.81-4.06V48.8h1.51Zm18.78 4.7v6.49h-1.51v-6.34c0-2.36-1.23-3.57-3.36-3.57-2.4 0-3.92 1.49-3.92 4.04v5.87h-1.51V48.79h1.45v2.06c.81-1.36 2.32-2.15 4.26-2.15 2.72 0 4.6 1.57 4.6 4.79Zm12.51.87-2.64 2.43v3.19h-1.51V44.19h1.51v10.7l6.68-6.11h1.87l-4.79 4.57 5.23 6.62h-1.85l-4.51-5.62Zm22.18.49h-9.36c.17 2.34 1.96 3.89 4.4 3.89 1.36 0 2.58-.49 3.43-1.47l.85.98c-1 1.19-2.55 1.83-4.32 1.83-3.49 0-5.87-2.38-5.87-5.7s2.32-5.68 5.47-5.68 5.43 2.32 5.43 5.68c0 .13-.02.3-.02.47Zm-9.36-1.13h7.94c-.19-2.19-1.79-3.72-3.98-3.72s-3.77 1.53-3.96 3.72m22.35-5.02v1.47c-.13 0-.26-.02-.36-.02-2.34 0-3.77 1.49-3.77 4.13v5.7h-1.51V48.79h1.45v2.19c.7-1.49 2.13-2.28 4.19-2.28m5.51 10 .68-1.19c.89.7 2.4 1.26 3.98 1.26 2.13 0 3-.72 3-1.83 0-2.92-7.26-.62-7.26-5.04 0-1.83 1.58-3.19 4.43-3.19 1.45 0 3.02.4 3.96 1.04l-.66 1.21c-.98-.68-2.15-.96-3.3-.96-2.02 0-2.91.79-2.91 1.85 0 3.02 7.26.74 7.26 5.04 0 1.94-1.7 3.19-4.62 3.19-1.85 0-3.64-.6-4.55-1.38Z" class="cls-2"/><path d="M12.88 33.98c7.07 0 12.61-4.68 12.61-10.67 0-4.78-2.57-7.16-9.83-9.1-5.94-1.59-6.46-2.08-6.46-3.88s1.61-3.13 3.74-3.13c1.93 0 3.21.89 3.72 2.57h7.82C23.98 4.5 19.27.84 12.95.84S1.26 5.01 1.26 10.34c0 4.52 2.76 7.1 9.84 9.22 5.93 1.78 6.45 2.36 6.45 4.52 0 2.02-1.86 3.54-4.33 3.54-2.67 0-4.22-1.17-5.14-3.92H0c.98 6.63 5.55 10.28 12.88 10.28" class="cls-1"/><path d="M45.92 0c-9.63 0-17.43 7.81-17.43 17.43s7.81 17.43 17.43 17.43 17.43-7.81 17.43-17.43S55.55 0 45.92 0m0 30.69c-4.86 0-8.8-3.41-8.8-9.27 0-7.19 8.8-15.28 8.8-15.28s8.8 8.09 8.8 15.28c0 5.86-3.94 9.27-8.8 9.27" class="cls-2"/></g></svg>