<svg xmlns="http://www.w3.org/2000/svg" xml:space="preserve" viewBox="0 0 177.7 60.1"><path d="M90.3 33.2V17.8c0-8.4-2.5-9.9-6.7-9.9-2.6 0-4.8 1-6.2 2.9-1.1 1.5-1.4 3.4-1.4 7.6v14.9h-8.3V1.6h7.7v3C78.5 1.9 81.2.8 85.2.8c4.8 0 8.6 1.6 10.9 4.6 1.9 2.5 2.5 5.2 2.5 10.8v17zm42 0v-4.1c-3.3 3.4-6.7 4.8-11.6 4.8-10.2 0-17.5-6.9-17.5-16.4S110.7.9 121 .9c5 0 8.5 1.5 11.4 5V1.6h7.7v31.6zM121.8 7.9c-6 0-10.2 4.1-10.2 9.9S115.9 27 122 27s10.1-4.1 10.1-9.4c0-5.7-4.3-9.8-10.3-9.7m47.6 25.3V17.8c0-8.4-2.5-9.9-6.6-9.9-2.6 0-4.8 1-6.1 2.9-1.1 1.5-1.4 3.4-1.4 7.6v14.9h-8.4V1.6h7.7v3c3.1-2.7 5.8-3.8 9.8-3.8 4.8 0 8.6 1.6 10.9 4.6 1.9 2.5 2.5 5.2 2.5 10.8v17zM79.1 54.4c0 3.4-2.4 5.7-5.6 5.7-1.8 0-3.4-.8-4.3-2.3V60h-1.4V44.2h1.5v6.7c.9-1.5 2.5-2.2 4.3-2.2 3.2 0 5.5 2.3 5.5 5.7m-1.5 0c0-2.6-1.8-4.4-4.2-4.4s-4.2 1.7-4.2 4.4 1.8 4.4 4.2 4.4 4.2-1.8 4.2-4.4m19-5.6V60h-1.4v-2c-.8 1.4-2.2 2.2-4 2.2-2.8 0-4.7-1.6-4.7-4.8v-6.5H88v6.3c0 2.4 1.2 3.6 3.4 3.6 2.3 0 3.8-1.5 3.8-4.1v-5.9zm18.7 4.7V60h-1.5v-6.3c0-2.4-1.2-3.6-3.4-3.6-2.4 0-3.9 1.5-3.9 4V60H105V48.8h1.4v2.1c.8-1.4 2.3-2.2 4.3-2.2 2.8 0 4.6 1.6 4.6 4.8m12.5.9-2.6 2.4V60h-1.5V44.2h1.5v10.7l6.7-6.1h1.9l-4.8 4.6 5.2 6.6h-1.9zm22.2.4h-9.4c.2 2.3 2 3.9 4.4 3.9 1.4 0 2.6-.5 3.4-1.5l.9 1c-1 1.2-2.6 1.8-4.3 1.8-3.5 0-5.9-2.4-5.9-5.7s2.3-5.7 5.5-5.7 5.4 2.3 5.4 5.7c.1.2 0 .4 0 .5m-9.3-1.1h7.9c-.2-2.2-1.8-3.7-4-3.7s-3.7 1.5-3.9 3.7m22.3-5v1.5h-.4c-2.3 0-3.8 1.5-3.8 4.1V60h-1.5V48.8h1.4V51c.8-1.5 2.3-2.3 4.3-2.3m5.5 10 .7-1.2c.9.7 2.4 1.3 4 1.3 2.1 0 3-.7 3-1.8 0-2.9-7.3-.6-7.3-5 0-1.8 1.6-3.2 4.4-3.2 1.4 0 3 .4 4 1l-.7 1.2c-1-.7-2.1-1-3.3-1-2 0-2.9.8-2.9 1.8 0 3 7.3.7 7.3 5 0 1.9-1.7 3.2-4.6 3.2-1.9.1-3.7-.5-4.6-1.3M12.9 34c7.1 0 12.6-4.7 12.6-10.7 0-4.8-2.6-7.2-9.8-9.1-5.9-1.6-6.5-2.1-6.5-3.9s1.6-3.1 3.7-3.1c1.9 0 3.2.9 3.7 2.6h7.8c-.4-5.3-5.1-9-11.5-9S1.3 5 1.3 10.3c0 4.5 2.8 7.1 9.8 9.2 5.9 1.8 6.4 2.4 6.4 4.5 0 2-1.9 3.5-4.3 3.5-2.7 0-4.2-1.2-5.1-3.9H0C1 30.3 5.6 34 12.9 34m33-34c-9.6 0-17.4 7.8-17.4 17.4s7.8 17.4 17.4 17.4S63.3 27 63.3 17.4 55.5 0 45.9 0m0 30.7c-4.9 0-8.8-3.4-8.8-9.3 0-7.2 8.8-15.3 8.8-15.3s8.8 8.1 8.8 15.3c0 5.9-3.9 9.3-8.8 9.3" style="fill:#fff"/></svg>