<svg xmlns="http://www.w3.org/2000/svg" viewBox="0 0 520 348"><path fill="#eceee7" d="m242 8 80 4 4 4h16l4 4 24 4 64 32 38 38 16 36v52q-15 45-50 70l-28 20-68 28h-16l-24 8h-28l-4 4h-48l-4-4h-28q-4-8-20-4l-4-4h-12l-36-12-48-28-30-30-20-44v-40l20-44 42-42 52-28 36-12 32-4 4-4h32zm-12 28-4 4-44 4-36 12-52 28-38 42-12 36 4 24 6 6 10-14 22-22h6q2-13-12-18v-12l16-28 42-30 12-4h28q12 2 10 18l-34 30q-18 6-14-6l14-10q9-4 6-16h-10l-24 16h-6q2 10-8 14v14h22l4-4q15-5 10 10l-18 10-34 34v18h14l28-12 10-10v-8l20-36q29-39 74-62l10 6-12 24-32 40-18 14-18 18v8q2 8 14 6l44-52 14 2-16 24 2 14 30-38v-6h16l-16 34-2 6 22-4 4-22q19-27 60-26l-4 14-36 32q3 9 18 6l6-6 4-16q12-18 34-26h26l-4 18-26 22q-10-3-6 8l26-8 10-10v-8l8-12 26-18q15-3 18 6-2 22-18 30-15-4-10 8h14l26-22v-12l-8-12-38-34-52-24-28-4-4-4h-24l-4-4zm-22 60v6l-32 40 2 6 38-46q3-10-8-6m162 28-18 18q-3 9 6 6l18-22zm52 0-14 14 2 2 14-10zm-104 4-10 14 2 2 10-10zm140 12-6 10-26 22q-26 6-32-8h-8l-24 16q-13-3-16 4l-20-12h-12l-10 4-8 18-30 22-18-4v-18l16-16-14-2-6 6-8 24q3 17-4 24l-14 10-16 4-6 2v-12l16-34q-10 2-14-8h-8l-20 16h-12l-12-12-58 42 18 14 44 20 28 4 4 4h20l4 4h80l4-4h20l20-8h12l56-24 28-20 26-30 12-32v-24zm-192 32-2 2 8 2-4 10q-4 13 6 10l10-14v-10z" opacity=".996"/><path fill="#708a41" d="M218 0h96l4 4h20l4 4 28 4 72 32 30 26-2 2-8-8-6 2q8 4 0 8l16 16-2 2-34-34 2-2 12 12 6-6q-3-13-22-10-5 9-10-2l2-6-8 4-38-18 12-4-14-2-6 2 2-6-12 4v-8l-16 4-24-8-80-4-4 4h-32q-4 8-20 4l-4 4h-12l-36 12-52 28-42 42-10 18-2-6 2-6q-9-3-6 6-15 9-18 30l-2-10 16-32 26-30 44-32 24-12h8l36-16 32-4 4-4h20z" opacity=".988"/><path fill="#708a41" d="m230 36 70 2-70 2zm-28 4 18 2-18 2zm104 0h20l18 6-14 2q-5-9-24-4zm-124 4 14 2q-5 11-10 2-9.5-.5-4-4m-36 12 20 4q4-8 8 0l14 10-2 2-8-8q-22 4-32-4v8l-10-6zm228 0 14 6-6 2-10-6zm-140 4q4 8 8 0l14 10-2 2-8-8q-49 21-78 62l-20 36v8l-10 10-22 8 2-8q4 8 8 0 9 3 6-6l6 2 6-6 4-12-2-6 6-2-2-6q9 3 6-6l54-62 4 4 12-12h6zm-104 4q10 4 4 8-10-4-4-8m264 0 22 14-6-2q-16-2-16-12m-272 4q10 4 4 8-10-4-4-8m-8 4 6 6-10 10-14 10-14 26-2-6 4-4-2-6q9 3 6-6l12-12-2-2-32 28-2-2 30-30 12-8v8l10-6zm136 4 2 6-42 50-2-2 20-20zm-100 4 10 2-10 2zm36 4 2 2-26 26-10 6-2 6-12-4-10 4 2-8q5 9 10-2l-4-8 10-14 2 6q-10 4-8 14l22-4zm174 0q10.7-4.5 8 6-4 10-8 4zm66 0q20.7 13.3 30 38h-4l-2-6-8 12 2-6q2-12-6-14h-12l-26 18-6 10q-11-5-2-10l2-6 4 4 12-12q9 3 6-6l6 2 4-4 14-2-16-16zm-292 4q6 4-4 8-6-4 4-8" opacity=".988"/><path fill="#708a41" d="M158 88q6 4-4 8-6-4 4-8m52 8q9-3 6 6l-16 12 4 4-10 10-6 2 4 4-14 14-2-6 12-8q-9-5 2-10l6-2-4-4 10-10 10-6zm264 0 18 34v40l4 4q-4 10-8 4v-48l-16-32zm-356 8-2 6-2 14-2-14zm216 0 14 10q-3 9 6 6 9.2-12.8 36-8v4h-24q-22 8-34 26l-4 16-6 6q-15 3-18-6 4-10 8-4l-2 6q19.3 6.7 14-10h-8l28-24q-8-4 0-8v-6h-18l-28 12-14 14-2 6-2-6 18-22 6 2 2-6q4 8 8 0h8zM62 120q6 4-4 8-6-4 4-8m200 0 22 2q-5 11-10 2-16 3-12-4m-240 4q9-3 6 6l-6 14-2-10 4-4zm208 0 10 2q-15.3.7-20 12l-10 14-6-2 12-8z" opacity=".988"/><path fill="#708a41" d="m370 124 6 2-18 22q-9 3-6-6zm52 0 2 6-14 10q-6-4 4-8h6zm-176 4q6 4-4 8-6-4 4-8" opacity=".988"/><path fill="#708a41" d="m258 128 2 2-8 8q-6.7 19.3-22 30l-2-8 12-6q-15-7-2-14v8l10-6zm60 0 2 6-10 10-2-2zm136 0 2 2-14 14-2-2zm-180 4-2 6-6 10 2-6zm164 0 2 2-8 8 4 4-6 6-8-4-6 2q-3.3-10.5 10-6zm-300 4q6 4-4 8l-16 12-2-2 14-14zm248 0 6 10q-6.5 11.5-22 14-12-6 0-12v8l18-10-2-6-8 8-2-2zm-336 4 2 10h-4zm32 0q12 4.5 10 16h-6l-22 22-10 14-6-10h4l2 6 6-6-2-6 30-26-8-8zm120 0q6 4-4 8-6-4 4-8m256 0 6 2v24h-4l-2-22-8 12 2-6zM2 148l2 10H0zm16 0 2 34h-4l-4-8 4-12q-8-4 0-8zm172 0 2 2-16 16q-5 15 10 10l20-20 2 2-22 22h-8q-8-2-6-14zm88 0 2 12q-10.7 4.5-8-6zm80 8q10 4 4 8-11.2 2.7-4-8m-312 4 2 10h-4zm212 0 10 2-10 2zm128 4q4 8 8 0l8 8h20l2 6-6-2q-20 4-24-8l-12 4-8 4q-6-4 4-8zm48 0q6 4-4 8-6-4 4-8m-332 4-2 6-2 6-2-6zm164 4h18v10h-4l-2-6-6 14h8l-12 6 4-20h-6l-18 18v18h6l10 6-6 2-14-10-4-18 8-2-4-8 6-6q13 3 16-4m-18 8v6q4 6 8-4zm66-8h12q4.3 9.7 18 10l-10 2q-3-11-20-8zm144 0 2 10-14 22v-12l6-2-2-6h6zm-152 4 2 6-18 22-2-2 8-8zm-208 8 14 6-16 2zm92 8h8q4 10 14 8l-2 8-20-12-8 8-2-2zm-48 4 14 10-2 2-8-8-8 4q-6-4 4-8m340 0 2 6q-4 10-8 4zm-200 8q6 4-4 8-6-4 4-8m156 0 6 6-18 18-52 32q-6-4 4-8l26-14 2-6 4 4 10-10zm-408 8 10 14q-4 6-8-4zm96 0q6 4-4 8l-12 8-2-2 10-10zm80 0-2 6-8 16v12l6-2 12-4v4l-16 8h-10l4-10q-10-6 4-12zm268 0q6 4-4 8-6-4 4-8m-240 12 2 6q-4 10-8 4zm232 0 2 2-30 30-12 8-2-2 10-10zm-424 8 26 26-2 2-26-26zm52 0v8l22 14-6-2-22-14zm40 24 2 8-8-2zm-60 4 26 18-6 2-8-8-6 2-8-12zm284 0 10 2-34 10v-4zm-216 4 12 4 6-2q3.3 10.5-10 6l-10-6zm276 0q6 4-4 8-6-4 4-8m-252 8 10 2-10 2zm24 0q10 4 4 8l-14-2zm112 0 10 6-14 2q-6-4 4-8m16 0 10 2-10 2zm-100 4 14 6-26 2v-4zm56 0 14 6-26 2v-4zm104 8 6 2-14 6v-4zm-256 4 14 6-6 2-10-6zm236 4 6 2-18 6v-4zm-216 4 26 6-10 6q-2-10-16-8zm184 4 14 2-14 2zm-152 4 14 2-14 2zm132 0 14 2-14 2zm-104 4 18 2-18 2zm72 0 18 2-18 2z" opacity=".988"/><path fill="#688537" d="M222 44h84l4 4q16.7-2.7 24 4l8-4 48 24 6-2 2 6 6-2q-3 9 6 6l18 18-2 2-34 16-2-8-6 2 10-10 4 4 14-4-6-12-16-8h-10l-2 8q-4-8-20-4-8 2-6 14l16 12-10 6-6-2-2 6-6-10 2-6h-24l-2 6-6-2-22 10 2 6-4-4-6 2-2-6q-3 7-16 4l-8-4v8l-24-4-6 2 24-32 8-20-10-14q-16.2-2.2-22 6l2 6-6-2-6 10q-4-8-8 0l-12 8-12-24-6 2 6-10 12-4h20zm40 8 2 6q5 27-4 40l-16 16 2 2 24-8q16-4 20 4l20-12h38V82l6-6 22-2-42-18zm-64 4 4 20 2-8 20-10z" opacity=".988"/><path fill="#688537" d="m462 68 16 16 4-4 10 10 20 36-4 10 8 2q-4 10-8 4l-6-18-2 18q9 5 4 24l-4 4v28h4l8-24v-20l6-10 2 30-8 8q10 6-4 12-13.5 46.5-50 70l-64 36-36 12h-12l-4 4-40 4-4 4h-96l-4-4h-20l-4-4h-16l-4-4h-12l-24-8q-60.7-25.3-102-70l-8-20 4-8H4l-4-16 4-4v-28l6-6 2 32q12-5 8 10l-2 6 6 2-4 4 8 8-2 6 6 2q-9 5 2 10l10 6q-2 16 10 18l6-2-2 6q13.3-4.5 10 6l18 14 6-2 2 6 6-2q-3 9 6 6l52 20q6-10 12 4l8-4q2 10 16 8 4-8 8 0l12 4h68l12-8q3 7 16 4l16-8 28-4 12-8q6 10 12-4l32-12 50-38 28-40 8-24v-36q-8-4 0-8l-8-12q10-6-4-12l-4-16-20-24zM142 92l2 8-12 6-6 18-6-10 14-18z" opacity=".988"/><path fill="#688537" d="m82 104-2 6-4 8 4 8-4 12 6 18-4-4-18 18 2 6-6-2-2 10-2-30 12-20v-8zm-12 32-6 18q4 6 8-4zm100-28 2 2-12 12 2 6q-9-3-6 6l-4 4 2 6-6 2 2 6-6-2 4 8-8 4 4 8-6-2-4 4-6 2 2 6-8-4-16 12h-6l4-16q11.5 2 16-10l10-14q15.5-2.5 22-14-6-17.5 6-14zm116 20q6 4-4 8-6-4 4-8m-268 8 2 8-8-2zm260 4 2 2-8 8-2 6-2-6zm-72 4 2 2-10 10-2-2zm252 8 2 20q-10.7-4.5-8 6l-12 20 2 6q-18.5 3.5-26 18l-2 10q-4-8-8 0l-10 6-6 10-8-4v8l-6-2-2 6-6-2-2 6q-3.7-7-14-4l-2 8-10-4-2 8-10-4q4.5 10.7-6 8l-10-4q4.5 10.7-6 8l-12-4q-2 10-16 8l-4-4h-56l-12 4-16-8-10 4q4.5-10.7-6-8l-10 4q4.5-10.7-6-8l-6 2q3.3-10.5-10-6l-8-4-6 2-2-6-6 2-2-6-6 2-6-10-6 2 4-10 14-4 16-16h6l2-8 8 8 26 4q-5-12 10-8 7-15 14-2l4 8h-8l4 8-8 4 2 6q-9-3-6 6l-4 12q2 8 14 6l28-16 4 4 10-10 6-22q5 13 28 8l34-30 6-10h8l20 12h14l2-8q4 8 8 0l24-12 8 8q4-8 8 0h20l30-22zm-72 32-20 12h-36l-12-8-2 10-14 10q-12 5-10 16l-10 4h-34l-4 14-10 10h-8l-12 8h-34v-26l8-12-38-2-4-4-20 20-10 2 30 18 28 4 16 8h20l4 4h68l4-4h16l36-12h12l56-32q9 3 6-6l18-14 10-20q-14-4-18 4h-24zm-196-24 2 2-8 8 2 6-6-6z" opacity=".988"/><path fill="#668137" d="m226 40 74 2-74 2zm-24 4 10 2-10 2zm-26 4 12 2-12 6zm-14 4 10 2-18 6v-4zm196 0 14 6-6 2-10-6zM118 72l6 2-14 6-40 36-2-2 22-22zm292 4q10 4 4 8-10-4-4-8m-222 4q12-4 8 8l-10 4 2-6zm192 0q12-3 16 6 3 19-10 22l-10-2 16-12-2-6q-5.6 10.4-24 8v-4l14-4zm-234 4 10 2-14 6q-6-4 4-8m104 0-2 6-24 32v6l-12 6-18 26-4-4-12 12-2-2 32-28zm108 0 2 18q-4 6-8-4-2-12 6-14m112 0q10 4 4 8-10-4-4-8m-336 8q6 4-4 8-6-4 4-8m-12 8 2 10-4 8 2 6q-8-2-6-14zm52 0 2 2-10 10-2-2zm36 0q6 4-4 8-6-4 4-8m228 0q10 4 4 8-10-4-4-8m-240 16q6 4-4 8-6-4 4-8m252 0 2 6-22 26-2-2 12-12zm-384 4-6 18-6 10-2-10zm12 8 2 10h-4zm72 4q6 4-4 8l-8 4q-6-4 4-8zm96 0 2 6-14 18-2-6zm32 0q6 4-4 8-6-4 4-8m88 0q6 4-4 8-6-4 4-8m24 4-2 6q3 9-6 6l-12 8v-4zm104 4 2 30h-4zm-364 4 2 2-12 12-10 14-8 4 2-6 6-10zm140 0-2 6-6 10 2-6zm56 0-2 6q3.3 10.5-10 6l-6 2zm132 4-2 6-6 10-8 4-2-2zm-408 8 2 14h-4zm340 8 2 2-10 10-2-2zm44 4q6 4-4 8-6-4 4-8m-156 8 2 6q-4 10-8 4zm32 0 14 2-14 2zm60 0 6 2-14 10-2-8zm148 0 2 10-24 48-34 34-24 16-72 32h-12l-20 8h-16l-4 4h-36l-4 4h-48l-4-4h-36q-4-8-20-4l-4-4h-12l-36-12-20-12h-8l-36-24-26-26 2-2 12 12 40 28 64 28 32 4 4 4h20l4 4h96l4-4 40-4 4-4h12l36-12 64-36 34-34 16-28v-8l8-8q-9-5 2-10" opacity=".996"/><path fill="#668137" d="M338 184q23.4-6.7 18 8-19 4-18-8m-36 8 2 2-14 14-12 8-2-2 10-10zm-160 8-2 6q3 9-6 6l-12 12-2-2q14-5 12-18zm44 0q6 4-4 8-10.5-2.7-6 8h-14l-14-10 6 2q24 4 32-8m56 0 2 26q-4 10-8 4zm240 4-2 6q-12 30-38 46l-2-2 28-28zm-368 20q6 4-4 8-10.5-2.7-6 8H94v-4zm112 12 10 2-6 6q-4-8-8 0l-6-2zm-180 4q10 4 4 8-10-4-4-8m388 16 2 2-10 10-2-2zm-360 8q10 4 4 8-10-4-4-8m344 4q6 4-4 8-6-4 4-8m-316 12 26 14-6 2-16-8q-10-4-4-8m292 0 6 2-22 10v-4zm-28 12q9-3 6 6l-6-2-4 4-6-2zm-40 12 10 2-10 2zm-144 4 18 2q-2 8-14 6-10-4-4-8m112 0 22 2q-3 9-18 6-10-4-4-8m-88 4 82 2-6 6h-68l-10-6z" opacity=".996"/><path fill="#6b8739" d="m370 20 20 4 6 6-6-2q-19.6 2.4-20-8m32 12 14 6-6 2-10-6zm-180 8q6 4-4 8l-6-2zm-24 4q6 4-4 8-6-4 4-8m128 0 10 6-6 2q-10-4-4-8m-64 8 72 4 42 18-22 2-6 6v18h-38l-20 12q-4-8-20-4l-24 8-2-2 16-16q9.3-12.7 4-40zm178 0h6l34 26 4 8-2 2-8-8-4 4-30-26zM78 56q6 4-4 8-6-4 4-8m120 0 26 2-20 10 4 14-46 42v-12q5 9 10-2l10-18h8l14-14-4-4V62z"/><path fill="#6b8739" d="M236 56q15.3-4 20 6l4 8q-4 10-8 4l4-4-10-10-8 4zm-50 4q10 4 4 8-11.2 2.7-4-8m44 0q6 4-4 8-6-4 4-8m-12 8-2 6-2 6-2-6zM58 72l2 2-14 14-2-2zm360 8 18 18-6 6-8 4-2-8 8-2-12-16zm-260 4 2 2-10 10q-10-4-4-8zm240 0 14 10q3 9-6 6l-10 4zM42 92q6 4-4 8-6-4 4-8m96 8-2 6 4 8q-4 10-8 4-3-15 6-18m-104 4 2 2-12 12-4 16-8 8 8 4-6 10-4-4-6 2 4-20 16-20v-6zm286 0 12 2-10 6zm94 0 2 8q-10-2-14 8h-8v-4zm-106 4 8 2q-4 10-8 4zm62 0 14 2-14 2zm-288 4q6 4-4 8-6-4 4-8m404 0q10 4 4 8-10-4-4-8m-192 4-2 6q3 9-6 6l-8 4v-4zm-68 4 2 6-18 22-6-10h8l6-10h6zm8 0h12l14 6-10 6-16-8zm272 0-2 6 2 10 4-8q10 4 4 8-9-3-6 6h8l-4 12v20l-10 26-2-30q9-5 4-24-8-4-4-20zm-58 4 8 2-18 18-2-2q14-5 12-18m42 0 6 10h-4zm-332 4 2 6q-4 10-8 4zm-88 8 2 14-10 10-2-2zm208 0-2 6 4 4-6 6 2-6-4-4zm-200 8 10 6-8 2v6l-14 14-8 4-2-2 24-24zm-24 4q6 4-4 8-6-4 4-8m148 4 6 2-26 22-6-6 14-14q6 10 12-4m112 4 10 2-10 2zM2 160l2 26H0zm12 0 2 10h-4zm380 8 6 10q-4 6-8-4zm-264 4 2 2-10 10-2-8zm324 0 2 12-8-2zm-352 4q6 4-4 8-6-4 4-8"/><path fill="#6b8739" d="M494 176q6 4-4 8-6-4 4-8m-380 4 2 8-8-2zm140 0q6 4-4 8-6-4 4-8m24 4q6 4-4 8-6-4 4-8m108 0 12 4h24q4.5-8 18-4l-10 20-18 14q3 9-6 6l-54 30 12 4-10 6-2-8-46 8-4 4h-16l-4 4h-68l-4-4h-20l-16-8-28-4-30-18 10-2 20-20 4 4 38 2-8 12v26h34l12-8h8l10-10 4-14h34l10-4q-2-11.5 10-16l14-10 2-10 12 8h36z"/><path fill="#6b8739" d="m190 196 2 6q-4 10-8 4zm-44 4 6 10q-4 6-8-4zm52 0q9-3 6 6l2 6q-9-3-6 6h-4l4-12zm244 4q6 4-4 8-6-4 4-8m-12 4 2 2-12 12-2 6-2-6zm60 8 2 6q-4 10-8 4zm-460 8 10 6-6 2q-10-4-4-8m-8 8q10 4 4 8-10-4-4-8m380 0 2 6q-4 10-8 4zm-296 8q10 4 4 8-10-4-4-8m78 0 8 2-4 10 12 2-10 2q-9-4-6-16m206 0q6 4-4 8l-8 4q-6-4 4-8zm68 0q6 4-4 8-6-4 4-8m-412 4 10 4 4 10-2 2-14-14zm92 12q3.7 7 14 4l-2 8q-3.7-7-14-4zm300 0q6 4-4 8-6-4 4-8m-368 4 6 10q-4 6-8-4zm270 0 8 2q-4 10-8 4zm-12 4 8 2q-4 10-8 4zm-154 4q9-3 6 6l-2 2q-10-4-4-8m138 0 8 2q-4 10-8 4zm-118 4q10 4 4 8-10-4-4-8m98 0 8 2q-4 10-8 4zm-70 4 50 2-14 6h-24l-12-4zm-84 20q10 4 4 8-10-4-4-8m12 4q10 4 4 8-10-4-4-8m192 0q6 4-4 8-6-4 4-8m-176 4 10 6-6 2q-10-4-4-8m156 0 2 8-8-2z"/><path fill="#4e6b2f" d="m390 88 2 6q-7 13-26 14l-6-12q21 4 30-8m124 112 2 10q-16.7 43.3-50 70l-56 36-72 24q-16-4-20 4H190l-4-4h-16l-48-16-32-16q-34.4-19.6-58-50l2-2 16 16 36 24h8l40 20h12l20 8h16l4 4h36l4 4h48l4-4h36q4-8 20-4l4-4h12l4-4h12l24-8 72-40 34-34z" opacity=".957"/><path fill="#5d7a2c" d="m186 0 30 2-58 10-36 16h-8Q71.4 47.4 40 78l-20 24-16 32-2 14-2-18q20.7-45.2 58-74l44-28zm132 0h28l60 20q46.6 19.4 78 54v6q10.7-4.5 8 6l28 40v16h-4l-12-36-46-50-64-36-24-8h-12l-4-4h-12l-4-4h-20zM2 196q18.1 61.9 64 96l56 32 22 6-14 2-48-24-46-38-32-48-4-12zm516 0 2 14-20 40-38 38-40 24q-6-4 4-8l24-12 38-34 28-48zM414 312q6 4-4 8l-28 12h-12v-4l20-4zm-264 20 18 6-10 2-10-6zm208 0 6 2-10 6-32 4-4 4H190l-18-6 14-2 4 4h128l4-4h16z" opacity=".243"/></svg>